<svg width="21" height="21" viewBox="0 0 21 21" fill="none" xmlns="http://www.w3.org/2000/svg">
<path d="M19.0794 8.22012H11.7995C11.1195 8.22012 10.5596 8.78015 10.5596 9.42015V19.3C10.5596 19.98 11.1196 20.5 11.7995 20.5H19.0794C19.7594 20.5 20.2794 19.94 20.2794 19.3V9.42015C20.3194 8.78019 19.7594 8.22027 19.0794 8.22027V8.22012ZM13.5597 18.6199C13.5597 18.78 13.3996 18.94 13.2396 18.94H12.4396C12.2796 18.94 12.1195 18.78 12.1195 18.6199V17.8199C12.1195 17.6599 12.2796 17.4999 12.4396 17.4999H13.2396C13.3996 17.4999 13.5597 17.6599 13.5597 17.8199V18.6199ZM13.5597 16.1799C13.5597 16.3399 13.3996 16.4999 13.2396 16.4999H12.4396C12.2796 16.4999 12.1195 16.3399 12.1195 16.1799V15.3799C12.1195 15.2198 12.2796 15.0598 12.4396 15.0598H13.2396C13.3996 15.0598 13.5597 15.2198 13.5597 15.3799V16.1799ZM13.5597 13.74C13.5597 13.9 13.3996 14.06 13.2396 14.06H12.4396C12.2796 14.06 12.1195 13.9 12.1195 13.74V12.94C12.1195 12.7799 12.2796 12.6199 12.4396 12.6199H13.2396C13.3996 12.6199 13.5597 12.7799 13.5597 12.94V13.74ZM16.1596 18.6201C16.1596 18.7801 15.9996 18.9401 15.8395 18.9401H15.0395C14.8795 18.9401 14.7195 18.7801 14.7195 18.6201V17.8201C14.7195 17.66 14.8795 17.5 15.0395 17.5H15.8395C15.9996 17.5 16.1596 17.66 16.1596 17.8201V18.6201ZM16.1596 16.18C16.1596 16.3401 15.9996 16.5001 15.8395 16.5001H15.0395C14.8795 16.5001 14.7195 16.3401 14.7195 16.18V15.38C14.7195 15.22 14.8795 15.06 15.0395 15.06H15.8395C15.9996 15.06 16.1596 15.22 16.1596 15.38V16.18ZM16.1596 13.7401C16.1596 13.9002 15.9996 14.0602 15.8395 14.0602H15.0395C14.8795 14.0602 14.7195 13.9002 14.7195 13.7401V12.9401C14.7195 12.7801 14.8795 12.6201 15.0395 12.6201H15.8395C15.9996 12.6201 16.1596 12.7801 16.1596 12.9401V13.7401ZM18.7996 18.6202C18.7996 18.7803 18.6396 18.9403 18.4795 18.9403H17.6795C17.5195 18.9403 17.3595 18.7803 17.3595 18.6202V15.3803C17.3595 15.2203 17.5195 15.0603 17.6795 15.0603H18.4795C18.6396 15.0603 18.7996 15.2203 18.7996 15.3803V18.6202ZM18.7996 13.7401C18.7996 13.9002 18.6396 14.0602 18.4795 14.0602H17.6795C17.5195 14.0602 17.3595 13.9002 17.3595 13.7401V12.9401C17.3595 12.7801 17.5195 12.6201 17.6795 12.6201H18.4795C18.6396 12.6201 18.7996 12.7801 18.7996 12.9401V13.7401ZM18.7996 11.2201C18.7996 11.3801 18.6396 11.5402 18.4795 11.5402H12.3997C12.2397 11.5402 12.0797 11.3801 12.0797 11.2201V10.1801C12.0797 10.0201 12.2397 9.86005 12.3997 9.86005H18.4795C18.6396 9.86005 18.7996 10.0201 18.7996 10.1801V11.2201Z" fill="#93C5FD"/>
<path d="M12.0398 5.37985C11.0398 5.37985 10.2398 4.57985 10.2398 3.5799L10.2397 0.5H1.20003C0.560067 0.5 0 1.06003 0 1.70003V19.2999C0 19.9398 0.56003 20.4999 1.20003 20.4999H10.2C9.91993 20.1399 9.79993 19.7399 9.79993 19.2999V9.42003C9.79993 8.30012 10.7199 7.42 11.8399 7.42H15.1998V5.38007L12.0398 5.37985ZM1.87991 3.29989H7.47984C7.71981 3.29989 7.87986 3.45992 7.87986 3.69991C7.87986 3.9399 7.71983 4.09993 7.47984 4.09993H1.87991C1.63994 4.09993 1.47989 3.9399 1.47989 3.69991C1.47989 3.49998 1.67982 3.29989 1.87991 3.29989ZM1.87991 5.37985H7.47984C7.71981 5.37985 7.87986 5.53988 7.87986 5.77987C7.87986 6.01986 7.71983 6.17989 7.47984 6.17989H1.87991C1.63994 6.17989 1.47989 6.01986 1.47989 5.77987C1.47989 5.53988 1.67982 5.37985 1.87991 5.37985ZM8.87973 18.5798H1.87991C1.63994 18.5798 1.47989 18.3799 1.47989 18.1798C1.47989 17.9799 1.63992 17.7798 1.87991 17.7798H8.87973C9.1197 17.7798 9.27975 17.9797 9.27975 18.1798C9.27975 18.3797 9.11972 18.5798 8.87973 18.5798ZM8.87973 16.4999H1.87991C1.63994 16.4999 1.47989 16.3398 1.47989 16.0998C1.47989 15.8999 1.63992 15.6998 1.87991 15.6998H8.87973C9.1197 15.6998 9.27975 15.8997 9.27975 16.0998C9.27975 16.3398 9.11972 16.4999 8.87973 16.4999ZM8.87973 14.4199H1.87991C1.63994 14.4199 1.47989 14.2599 1.47989 14.0199C1.47989 13.7799 1.63992 13.6198 1.87991 13.6198H8.87973C9.1197 13.6198 9.27975 13.7799 9.27975 14.0199C9.27975 14.2598 9.11972 14.4199 8.87973 14.4199ZM8.87973 12.38H1.87991C1.63994 12.38 1.47989 12.18 1.47989 11.9799C1.47989 11.74 1.63992 11.5799 1.87991 11.5799H8.87973C9.1197 11.5799 9.27975 11.74 9.27975 11.9799C9.27975 12.1799 9.11972 12.38 8.87973 12.38ZM8.87973 10.3H1.87991C1.63994 10.3 1.47989 10.14 1.47989 9.89998C1.47989 9.66001 1.63992 9.49996 1.87991 9.49996H8.87973C9.1197 9.49996 9.27975 9.65999 9.27975 9.89998C9.27975 10.14 9.11972 10.3 8.87973 10.3ZM8.87973 8.22004H1.87991C1.63994 8.22004 1.47989 8.06001 1.47989 7.82002C1.47989 7.58005 1.63992 7.42 1.87991 7.42H8.87973C9.1197 7.42 9.27975 7.58003 9.27975 7.82002C9.27975 8.05999 9.11972 8.22004 8.87973 8.22004Z" fill="#93C5FD"/>
<path d="M12.0399 4.58018H14.9198L11.0801 0.740417V3.62039C11.0799 4.14023 11.52 4.58029 12.04 4.58029L12.0399 4.58018Z" fill="#93C5FD"/>
</svg>
