<svg width="30" height="40" viewBox="0 0 30 40" fill="none" xmlns="http://www.w3.org/2000/svg">
<g id="Frame 99">
<g id="Group 55">
<g id="Group 22">
<path id="Vector" fill-rule="evenodd" clip-rule="evenodd" d="M8.41617 3.60674C8.41617 1.61462 10.0311 0 12.0232 0C14.0153 0 15.6302 1.61462 15.6302 3.60674H20.4395C21.3966 3.60674 22.3137 3.98673 22.9896 4.66369C23.6665 5.33927 24.0462 6.25784 24.0462 7.21376V30.0582C24.0462 31.0153 23.6665 31.9325 22.9896 32.6083C22.3137 33.2853 21.3966 33.665 20.4395 33.665H3.60674C2.64968 33.665 1.73252 33.2853 1.05667 32.6083C0.379712 31.9324 0 31.0153 0 30.0582V7.21376C0 6.25784 0.379719 5.33926 1.05667 4.66369C1.73253 3.98673 2.64968 3.60674 3.60674 3.60674H8.41617ZM6.01163 24.0458C6.67531 24.0458 7.2139 24.5847 7.2139 25.2484C7.2139 25.912 6.67532 26.4506 6.01163 26.4506C5.34796 26.4506 4.80936 25.9121 4.80936 25.2484C4.80936 24.5847 5.34794 24.0458 6.01163 24.0458ZM9.61865 26.4506H18.035C18.6987 26.4506 19.2373 25.912 19.2373 25.2483C19.2373 24.5846 18.6987 24.0457 18.035 24.0457H9.61865C8.9547 24.0457 8.4161 24.5846 8.4161 25.2483C8.4161 25.912 8.95468 26.4506 9.61865 26.4506ZM6.01163 19.2365C6.67531 19.2365 7.2139 19.7754 7.2139 20.4391C7.2139 21.1028 6.67532 21.6414 6.01163 21.6414C5.34796 21.6414 4.80936 21.1028 4.80936 20.4391C4.80936 19.7754 5.34794 19.2365 6.01163 19.2365ZM9.61865 21.6413H18.035C18.6987 21.6413 19.2373 21.1027 19.2373 20.439C19.2373 19.7753 18.6987 19.2365 18.035 19.2365H9.61865C8.9547 19.2365 8.4161 19.7753 8.4161 20.439C8.4161 21.1027 8.95468 21.6413 9.61865 21.6413ZM6.01163 14.4272C6.67531 14.4272 7.2139 14.9661 7.2139 15.6298C7.2139 16.2935 6.67532 16.8321 6.01163 16.8321C5.34796 16.8321 4.80936 16.2935 4.80936 15.6298C4.80936 14.9661 5.34794 14.4272 6.01163 14.4272ZM9.61865 16.832H18.035C18.6987 16.832 19.2373 16.2934 19.2373 15.6297C19.2373 14.966 18.6987 14.4272 18.035 14.4272H9.61865C8.9547 14.4272 8.4161 14.966 8.4161 15.6297C8.4161 16.2934 8.95468 16.832 9.61865 16.832ZM14.3762 7.21256C13.7366 7.18599 13.2254 6.6582 13.2254 6.01142V3.60667C13.2254 2.94299 12.6868 2.4044 12.0231 2.4044C11.3594 2.4044 10.8209 2.94298 10.8209 3.60667V6.01142C10.8209 6.67509 10.2823 7.21369 9.61858 7.21369C9.59921 7.21369 9.58122 7.21369 9.56185 7.21258V7.21369H7.21378C6.5501 7.21369 6.0115 7.75227 6.0115 8.41596C6.0115 9.07963 6.55009 9.61851 7.21378 9.61851H16.8325C17.4962 9.61851 18.0348 9.07966 18.0348 8.41596C18.0348 7.75228 17.4962 7.21369 16.8325 7.21369L14.3762 7.21256Z" fill="#1F1F70"/>
</g>
<path id="Vector_2" fill-rule="evenodd" clip-rule="evenodd" d="M23.5338 33.9383H21.878C21.5806 33.9383 21.3295 34.185 21.3295 34.4894C21.3295 34.7958 21.5751 35.0405 21.878 35.0405H23.5338V36.6962C23.5338 36.9936 23.7805 37.2447 24.0848 37.2447C24.3912 37.2447 24.6359 36.9991 24.6359 36.6962V35.0405H26.2916C26.589 35.0405 26.8401 34.7938 26.8401 34.4894C26.8401 34.183 26.5946 33.9383 26.2916 33.9383H24.6359V32.2826C24.6359 31.9852 24.3892 31.7341 24.0848 31.7341C23.7784 31.7341 23.5338 31.9797 23.5338 32.2826V33.9383ZM24.0848 40C21.0414 40 18.5742 37.5328 18.5742 34.4894C18.5742 31.446 21.0414 28.9788 24.0848 28.9788C27.1282 28.9788 29.5954 31.446 29.5954 34.4894C29.5954 37.5328 27.1282 40 24.0848 40Z" fill="#1F1F70"/>
</g>
</g>
</svg>
