<svg width="8" height="16" viewBox="0 0 8 16" fill="none" xmlns="http://www.w3.org/2000/svg">
<g id="Group 26">
<path id="Vector" d="M3.99986 9.80644C3.81542 9.80644 3.64503 9.70805 3.55287 9.54837C3.4607 9.3887 3.4607 9.19192 3.55287 9.03224C3.64503 8.87257 3.81542 8.77418 3.99986 8.77418C4.61542 8.7728 5.2054 8.52763 5.64066 8.09239C6.07592 7.65713 6.32106 7.06715 6.32245 6.45159V3.35482C6.32245 2.52508 5.87982 1.75826 5.16116 1.34341C4.4425 0.928562 3.55723 0.928562 2.83857 1.34341C2.11991 1.75826 1.67728 2.52508 1.67728 3.35482V6.19353C1.67728 6.37798 1.57889 6.54836 1.41921 6.64053C1.25954 6.73269 1.06276 6.73269 0.903085 6.64053C0.743409 6.54836 0.64502 6.37797 0.64502 6.19353V3.35482C0.64502 2.15618 1.28443 1.04872 2.32244 0.449387C3.36045 -0.149796 4.63928 -0.149796 5.67729 0.449387C6.7153 1.04869 7.35471 2.15618 7.35471 3.35482V6.45159C7.35333 7.34087 6.99941 8.19343 6.37061 8.82234C5.7417 9.45114 4.88917 9.80505 3.99986 9.80644Z" fill="#334155"/>
<path id="Vector_2" d="M3.99986 16C3.11059 15.9986 2.25803 15.6447 1.62912 15.0159C1.00032 14.387 0.646406 13.5345 0.64502 12.6452V9.54839C0.646402 8.65911 1.00032 7.80655 1.62912 7.17764C2.25803 6.54885 3.11056 6.19493 3.99986 6.19354C4.18431 6.19354 4.3547 6.29193 4.44686 6.45161C4.53903 6.61129 4.53903 6.80806 4.44686 6.96774C4.3547 7.12741 4.18431 7.2258 3.99986 7.2258C3.38431 7.22718 2.79433 7.47235 2.35907 7.9076C1.92381 8.34286 1.67867 8.93284 1.67728 9.54839V12.6452C1.67728 13.4749 2.11991 14.2417 2.83857 14.6566C3.55723 15.0714 4.4425 15.0714 5.16116 14.6566C5.87982 14.2417 6.32245 13.4749 6.32245 12.6452V9.80645C6.32245 9.62201 6.42084 9.45162 6.58051 9.35945C6.74019 9.26729 6.93697 9.26729 7.09664 9.35945C7.25632 9.45162 7.35471 9.62201 7.35471 9.80645V12.6452C7.35333 13.5344 6.99941 14.387 6.37061 15.0159C5.7417 15.6447 4.88917 15.9986 3.99986 16Z" fill="#334155"/>
</g>
</svg>
