<svg width="12" height="16" viewBox="0 0 12 16" fill="none" xmlns="http://www.w3.org/2000/svg">
<g id="Group 33">
<path id="Vector" d="M0 0H2.37037V16H0V0Z" fill="#DBEAFE"/>
<path id="Vector_2" d="M6.51875 8.88888H2.37061V6.51851H6.51875C7.66262 6.51851 8.59282 5.58831 8.59282 4.44444C8.59282 3.30057 7.66262 2.37037 6.51875 2.37037H2.37061V0H6.51875C8.96979 0 10.9632 1.99339 10.9632 4.44444C10.9632 6.89548 8.96979 8.88888 6.51875 8.88888Z" fill="#DBEAFE"/>
<path id="Vector_3" d="M7.01644 16H2.37061V13.6297H7.01644C8.37593 13.6297 9.48171 12.5665 9.48171 11.2593C9.48171 9.95212 8.37593 8.88892 7.01644 8.88892H2.37061V6.51855H7.01644C9.6831 6.51855 11.8521 8.6452 11.8521 11.2593C11.8521 13.8734 9.68243 16 7.01644 16Z" fill="#DBEAFE"/>
</g>
</svg>
