<svg width="25" height="20" viewBox="0 0 25 20" fill="none" xmlns="http://www.w3.org/2000/svg">
<g id="Group 23">
<path id="Vector" d="M12.4998 1.78449e-05C5.79959 1.78449e-05 0.40918 3.92943 0.40918 8.76573C0.40918 11.5366 2.17235 14.005 4.89279 15.6171L3.63335 20L9.47716 17.3298C10.4344 17.5314 11.4419 17.5818 12.4998 17.5818C19.2 17.5818 24.5904 13.6524 24.5904 8.81609C24.5904 3.97984 19.2 0 12.4998 0L12.4998 1.78449e-05ZM6.60563 10.3778C5.64841 10.3778 4.89288 9.62211 4.89288 8.66507C4.89288 7.70785 5.64859 6.95232 6.60563 6.95232C7.56285 6.95232 8.31838 7.70803 8.31838 8.66507C8.31838 9.62211 7.56267 10.3778 6.60563 10.3778ZM12.4998 10.3778C11.5426 10.3778 10.7871 9.62211 10.7871 8.66507C10.7871 7.70785 11.5428 6.95232 12.4998 6.95232C13.457 6.95232 14.2126 7.70803 14.2126 8.66507C14.2126 9.62211 13.457 10.3778 12.4998 10.3778ZM18.394 10.3778C17.4368 10.3778 16.6813 9.62211 16.6813 8.66507C16.6813 7.70785 17.437 6.95232 18.394 6.95232C19.3512 6.95232 20.1068 7.70803 20.1068 8.66507C20.1572 9.62211 19.3512 10.3778 18.394 10.3778Z" fill="#1F1F70"/>
</g>
</svg>
