<svg width="36" height="36" viewBox="0 0 36 36" fill="none" xmlns="http://www.w3.org/2000/svg">
<g id="Group 17">
<path id="Vector" d="M26.9997 31.4999V11.2503C26.9997 10.057 26.5259 8.91233 25.6818 8.0682C24.838 7.22447 23.6934 6.75024 22.5001 6.75024H4.50005C3.30677 6.75024 2.16208 7.22447 1.31796 8.0682C0.474228 8.91232 0 10.057 0 11.2503V31.4999C0 32.6932 0.474228 33.8379 1.31796 34.682C2.16208 35.5258 3.30677 36 4.50005 36H22.5001C23.6934 36 24.838 35.5258 25.6818 34.682C26.5259 33.8379 26.9997 32.6932 26.9997 31.4999ZM19.1247 29.2501H7.87557C7.25407 29.2501 6.75046 28.7461 6.75046 28.125C6.75046 27.5039 7.25407 26.9999 7.87557 26.9999H19.1257C19.7468 26.9999 20.2504 27.5039 20.2504 28.125C20.2504 28.7461 19.7468 29.2501 19.1257 29.2501H19.1247ZM19.1247 24.7504H7.87557C7.25407 24.7504 6.75046 24.2468 6.75046 23.6253C6.75046 23.0042 7.25407 22.5002 7.87557 22.5002H19.1257C19.7468 22.5002 20.2504 23.0042 20.2504 23.6253C20.2504 24.2468 19.7468 24.7504 19.1257 24.7504H19.1247ZM19.1247 20.25H7.87557C7.25407 20.25 6.75046 19.746 6.75046 19.1249C6.75046 18.5034 7.25407 17.9998 7.87557 17.9998H19.1257C19.7468 17.9998 20.2504 18.5034 20.2504 19.1249C20.2504 19.746 19.7468 20.25 19.1257 20.25H19.1247ZM19.1251 15.7503H7.87499C7.25349 15.7503 6.74988 15.2464 6.74988 14.6252C6.74988 14.0041 7.25349 13.5001 7.87499 13.5001H19.1251C19.7462 13.5001 20.2498 14.0041 20.2498 14.6252C20.2498 15.2464 19.7462 15.7503 19.1251 15.7503ZM35.9998 4.50022V24.7499C35.9998 25.9432 35.5256 27.0878 34.6819 27.932C33.8378 28.7757 32.6931 29.2499 31.4998 29.2499H30.3747V11.2499C30.3724 9.16207 29.5419 7.16044 28.0657 5.68424C26.5895 4.20775 24.588 3.37752 22.5001 3.37491H9.15939C9.40649 2.41102 9.96697 1.5564 10.7527 0.945437C11.5384 0.334486 12.5049 0.00188033 13.5001 0H31.5001C32.6934 0 33.838 0.474228 34.6822 1.31796C35.5259 2.16207 36.0001 3.30677 36.0001 4.50005L35.9998 4.50022Z" fill="#FB5758"/>
</g>
</svg>
