<svg width="51" height="48" viewBox="0 0 51 48" fill="none" xmlns="http://www.w3.org/2000/svg">
<g clip-path="url(#clip0_23_632)">
<path d="M40.688 17.9878C38.7804 19.126 36.9813 20.2962 35.2907 21.4984L23.3246 9.6L6.43438 26.4V48H0V24L23.3246 0L40.688 17.9878Z" fill="#0F1829"/>
<path d="M48.258 11.2V13.888C46.2873 14.858 44.4106 15.8475 42.6279 16.8565V11.2094L48.258 11.2Z" fill="#0F1829"/>
<path d="M48.2578 20.1205V48H40.2148V27.5576C42.675 25.0667 45.356 22.5876 48.2578 20.1205Z" fill="#0F1829"/>
<path d="M16.0861 41.7054V48H10.4561V35.9021C12.5621 37.6027 14.4526 39.5514 16.0861 41.7054Z" fill="#0F1829"/>
<path d="M31.347 24.512C29.6213 25.9344 27.9785 27.4534 26.4266 29.0616L23.3248 25.6L17.4582 31.4353C15.2335 30.5328 12.8584 30.0533 10.4561 30.0216V28.8L23.3248 16L31.347 24.512Z" fill="#0F1829"/>
<path d="M29.7588 39.9379L35.3889 32.7605V48H29.7588V39.9379Z" fill="#0F1829"/>
<path fill-rule="evenodd" clip-rule="evenodd" d="M50.8695 15.5181C49.9863 16.2259 49.1158 16.938 48.2579 17.6546C45.1568 20.2435 42.2241 22.9082 39.4598 25.6489C38.0556 27.0482 36.6987 28.475 35.3891 29.9294C33.3983 32.1318 31.5216 34.4031 29.7591 36.7435C27.1229 40.2447 24.7575 43.9397 22.6831 47.7967C22.6406 47.8624 22.5817 47.9162 22.5123 47.9528C22.4429 47.9895 22.3652 48.0079 22.2866 48.0062C22.2081 48.0045 22.1312 47.9828 22.0635 47.9431C21.9957 47.9035 21.9393 47.8473 21.8997 47.7798C20.4085 44.4942 18.4506 41.4387 16.086 38.7068C14.4056 36.7775 12.5176 35.0373 10.4559 33.5172C10.0005 33.1758 9.53178 32.8452 9.04984 32.5252C8.74515 32.32 8.91169 31.9115 9.30532 31.9021C9.69895 31.8927 10.0774 31.9021 10.4559 31.9021C10.7114 31.9021 10.9669 31.9209 11.2129 31.936C11.4324 31.9492 11.6501 31.968 11.8658 31.9868C11.9737 31.9962 12.0797 32.0075 12.1856 32.0207C12.2916 32.0339 12.3995 32.0452 12.5055 32.0602L12.8215 32.1035L13.1319 32.1525L13.4404 32.2071L13.6883 32.2541L13.7507 32.2654H13.7848C13.8737 32.2824 13.9608 32.3012 14.0497 32.3219L14.3128 32.3821L14.5645 32.4442L14.6875 32.4762L14.9278 32.5402L15.0849 32.5854L15.3366 32.6607L15.5258 32.7172L15.8097 32.8113L16.0917 32.9111C18.4771 33.7828 20.5993 35.2458 22.2573 37.1614C23.8722 34.7798 25.6873 32.5386 27.683 30.4621C29.2452 28.8376 30.9021 27.3058 32.6451 25.8748C33.9294 24.8195 35.2636 23.8067 36.6476 22.8367C38.3698 21.6195 40.1645 20.4631 42.0317 19.3675C42.2323 19.2489 42.4329 19.1304 42.6335 19.0174C44.4465 17.9658 46.3213 16.96 48.2579 16C48.9518 15.6524 49.6526 15.3092 50.3604 14.9704C50.7881 14.7576 51.2234 15.232 50.8695 15.5181Z" fill="#0F1829"/>
</g>
<defs>
<clipPath id="clip0_23_632">
<rect width="51" height="48" fill="white"/>
</clipPath>
</defs>
</svg>
