<svg width="33" height="30" viewBox="0 0 33 30" fill="none" xmlns="http://www.w3.org/2000/svg">
<path d="M17.8961 0H14.8988C14.1661 0.00337354 13.4644 0.29659 12.9475 0.816125C12.4308 1.33537 12.1406 2.03815 12.1406 2.7708V7.26719C12.1406 7.39932 12.0335 7.50643 11.9011 7.50643H10.6417C9.9335 7.50586 9.2523 7.77799 8.73924 8.26606C8.2259 8.75409 7.92031 9.42094 7.88518 10.1282C7.85032 10.8356 8.08872 11.5291 8.55118 12.0655L14.2944 18.7659H14.2941C14.833 19.349 15.5909 19.6807 16.3848 19.6807C17.179 19.6807 17.9366 19.349 18.4756 18.7659L24.2188 12.0655C24.6812 11.5291 24.9196 10.8356 24.8845 10.1282C24.8496 9.42093 24.5438 8.75408 24.0307 8.26606C23.5174 7.77802 22.8362 7.50592 22.128 7.50643H20.8686C20.7364 7.50643 20.6293 7.39932 20.6293 7.26719V2.7708C20.6293 2.0424 20.3426 1.34322 19.8312 0.824834C19.3195 0.306155 18.6245 0.00985972 17.8961 0Z" fill="#3C82F5"/>
<path d="M32.7708 21.0199C32.8638 20.4815 32.714 19.9294 32.3617 19.5117C32.0098 19.0939 31.4911 18.8533 30.9446 18.8538H27.0403C26.6518 18.8538 26.2731 18.975 25.9568 19.201C25.6408 19.4268 25.403 19.7456 25.277 20.1133L24.2695 23.1486V23.1484C24.1452 23.5169 23.908 23.8371 23.5914 24.0632C23.2748 24.2892 22.8953 24.4098 22.5063 24.4078H10.3148C9.92567 24.4098 9.54613 24.2892 9.22961 24.0632C8.91306 23.8371 8.67579 23.5169 8.55153 23.1484L7.5816 20.1257C7.45566 19.7582 7.21782 19.4394 6.90184 19.2134C6.58557 18.9877 6.20689 18.8662 5.81835 18.8662H1.8764C1.3282 18.8589 0.804716 19.095 0.447463 19.5106C0.0901529 19.9263 -0.0647522 20.479 0.0249281 21.02L0.881212 26.1207C1.06029 27.2042 1.61832 28.1887 2.45553 28.8991C3.29274 29.6095 4.35514 29.9997 5.45317 30H27.3173C28.4151 29.9997 29.4775 29.6095 30.3149 28.8991C31.1521 28.1887 31.7099 27.2042 31.8889 26.1207L32.7708 21.0199Z" fill="#3C82F5"/>
</svg>
