<svg width="36" height="36" viewBox="0 0 36 36" fill="none" xmlns="http://www.w3.org/2000/svg">
<g id="Group 19">
<path id="Vector" d="M4.46551 35.9999H29.562C30.7464 35.9999 31.8824 35.5296 32.7197 34.692C33.5573 33.8547 34.0276 32.7187 34.0276 31.5343V22.0673C34.0276 21.4291 33.6871 20.8395 33.1346 20.5205C32.582 20.2012 31.901 20.2012 31.3485 20.5205C30.7956 20.8395 30.4551 21.4292 30.4551 22.0673V31.5343C30.4551 31.7714 30.3611 31.9985 30.1938 32.1657C30.0262 32.3333 29.7991 32.4274 29.5621 32.4274H4.46557C3.97217 32.4274 3.57254 32.0277 3.57254 31.5344V6.43786C3.57254 5.94445 3.97218 5.54482 4.46557 5.54482H13.9326C14.5708 5.54482 15.1605 5.20436 15.4794 4.65147C15.7987 4.09888 15.7987 3.41794 15.4794 2.8654C15.1605 2.31281 14.5708 1.97237 13.9326 1.97237H4.46557C3.28124 1.97237 2.14523 2.44272 1.30793 3.2803C0.47032 4.11759 0 5.2536 0 6.43794V31.5344C0 32.7188 0.470352 33.8548 1.30793 34.6921C2.14523 35.5297 3.28124 36 4.46557 36L4.46551 35.9999Z" fill="#0097FF"/>
<path id="Vector_2" d="M32.4645 1.30235C31.62 0.467848 30.4809 0 29.2938 0C28.1066 0 26.9675 0.467864 26.1234 1.30235L10.7171 16.7086L9.64556 23.2726C9.49137 24.1305 9.75676 25.0105 10.3598 25.6397C10.8806 26.1269 11.5669 26.3982 12.2802 26.3988H12.7269L19.2912 25.327L34.6975 9.87612C35.532 9.03197 35.9998 7.89285 35.9998 6.70573C35.9998 5.51861 35.5319 4.37949 34.6975 3.53502L32.4645 1.30235ZM29.9189 3.84789L32.1517 6.08067C32.4106 6.33703 32.4978 6.72016 32.3751 7.06309L28.9365 3.62453H29.2938C29.5255 3.59898 29.756 3.68155 29.9189 3.84789ZM17.594 21.9334L13.3517 22.648L14.0663 18.4058L26.3466 6.12548L29.8743 9.65312L17.594 21.9334Z" fill="#0097FF"/>
</g>
</svg>
