<svg width="40" height="40" viewBox="0 0 40 40" fill="none" xmlns="http://www.w3.org/2000/svg">
<path d="M31.573 28.8963H26.2881V34.4225L31.573 28.8963Z" fill="#0097FF"/>
<path d="M32.9911 5C32.2992 5 31.6356 5.27497 31.1461 5.76424C30.6568 6.25374 30.3821 6.91741 30.3823 7.60929C30.3823 8.30142 30.6573 8.96483 31.1468 9.45409C31.1476 9.45483 31.1481 9.45929 31.1488 9.46003C31.6286 9.95449 32.2873 10.2349 32.9765 10.2379H32.9854H32.9851C33.9208 10.2389 34.7861 9.74073 35.2548 8.93095C35.7235 8.12116 35.7245 7.1228 35.2577 6.31202C34.7908 5.50123 33.9268 5.00101 32.9911 5Z" fill="#0097FF"/>
<path d="M25.4559 28.5132C25.4559 28.2833 25.6118 28.0636 25.8416 28.0636H32.1147V10.9487C31.6589 10.8206 31.2321 10.6058 30.8573 10.3162L27.2252 13.9607C27.1479 14.0402 27.0421 14.0853 26.9314 14.0863C26.8207 14.0873 26.7142 14.044 26.6356 13.9659C26.5571 13.8879 26.513 13.7816 26.513 13.6709C26.5133 13.5602 26.5578 13.4541 26.6366 13.3764L30.2828 9.73483C29.9895 9.34615 29.7743 8.90445 29.6487 8.43402H8.39258V35H25.4555L25.4559 28.5132ZM11.8606 17.2434H19.5601C19.79 17.2434 19.9762 17.4297 19.9762 17.6596C19.9762 17.8895 19.79 18.0758 19.5601 18.0758H11.8606C11.6307 18.0758 11.4444 17.8895 11.4444 17.6596C11.4444 17.4297 11.6307 17.2434 11.8606 17.2434ZM11.8606 20.0179H28.5767C28.8066 20.0179 28.9929 20.2042 28.9929 20.4341C28.9929 20.664 28.8066 20.8502 28.5767 20.8502H11.8606C11.6307 20.8502 11.4444 20.664 11.4444 20.4341C11.4444 20.2042 11.6307 20.0179 11.8606 20.0179ZM11.8606 22.7924H28.5767C28.8066 22.7924 28.9929 22.9787 28.9929 23.2086C28.9929 23.4384 28.8066 23.6247 28.5767 23.6247H11.8606C11.6307 23.6247 11.4444 23.4384 11.4444 23.2086C11.4444 22.9787 11.6307 22.7924 11.8606 22.7924ZM11.4444 25.983C11.4444 25.7531 11.6307 25.5668 11.8606 25.5668H28.5767C28.8066 25.5668 28.9929 25.7531 28.9929 25.983C28.9929 26.2129 28.8066 26.3992 28.5767 26.3992H11.8606C11.6307 26.3992 11.4444 26.2129 11.4444 25.983Z" fill="#0097FF"/>
<rect x="0.5" y="0.5" width="39" height="39" rx="7.5" stroke="#D0D0D0"/>
</svg>
