<svg width="15" height="20" viewBox="0 0 15 20" fill="none" xmlns="http://www.w3.org/2000/svg">
<g id="Group 22">
<path id="Vector" fill-rule="evenodd" clip-rule="evenodd" d="M5.35738 2.14272C5.35738 0.95923 6.31678 0 7.50027 0C8.68377 0 9.64317 0.95923 9.64317 2.14272H12.5003C13.0689 2.14272 13.6138 2.36848 14.0153 2.77065C14.4175 3.172 14.643 3.71772 14.643 4.28562V17.8573C14.643 18.4258 14.4175 18.9707 14.0153 19.3722C13.6138 19.7744 13.0689 20 12.5003 20H2.50015C1.93157 20 1.38669 19.7744 0.985179 19.3722C0.583004 18.9707 0.357422 18.4258 0.357422 17.8573V4.28562C0.357422 3.71772 0.583009 3.172 0.985179 2.77065C1.3867 2.36848 1.93157 2.14272 2.50015 2.14272H5.35738ZM3.92887 14.2854C4.32315 14.2854 4.64312 14.6055 4.64312 14.9998C4.64312 15.3941 4.32316 15.714 3.92887 15.714C3.53459 15.714 3.21461 15.3941 3.21461 14.9998C3.21461 14.6055 3.53458 14.2854 3.92887 14.2854ZM6.07176 15.714H11.0718C11.4661 15.714 11.7861 15.394 11.7861 14.9997C11.7861 14.6055 11.4661 14.2853 11.0718 14.2853H6.07176C5.67732 14.2853 5.35734 14.6055 5.35734 14.9997C5.35734 15.394 5.6773 15.714 6.07176 15.714ZM3.92887 11.4282C4.32315 11.4282 4.64312 11.7483 4.64312 12.1426C4.64312 12.5369 4.32316 12.8569 3.92887 12.8569C3.53459 12.8569 3.21461 12.5369 3.21461 12.1426C3.21461 11.7483 3.53458 11.4282 3.92887 11.4282ZM6.07176 12.8569H11.0718C11.4661 12.8569 11.7861 12.5369 11.7861 12.1426C11.7861 11.7483 11.4661 11.4282 11.0718 11.4282H6.07176C5.67732 11.4282 5.35734 11.7483 5.35734 12.1426C5.35734 12.5369 5.6773 12.8569 6.07176 12.8569ZM3.92887 8.57107C4.32315 8.57107 4.64312 8.8912 4.64312 9.28549C4.64312 9.67977 4.32316 9.99975 3.92887 9.99975C3.53459 9.99975 3.21461 9.67978 3.21461 9.28549C3.21461 8.89121 3.53458 8.57107 3.92887 8.57107ZM6.07176 9.9997H11.0718C11.4661 9.9997 11.7861 9.67974 11.7861 9.28545C11.7861 8.89117 11.4661 8.57103 11.0718 8.57103H6.07176C5.67732 8.57103 5.35734 8.89115 5.35734 9.28545C5.35734 9.67973 5.6773 9.9997 6.07176 9.9997ZM8.89814 4.2849C8.51816 4.26912 8.21449 3.95557 8.21449 3.57132V2.14268C8.21449 1.7484 7.89452 1.42843 7.50023 1.42843C7.10595 1.42843 6.78597 1.74839 6.78597 2.14268V3.57132C6.78597 3.9656 6.46601 4.28558 6.07172 4.28558C6.06021 4.28558 6.04952 4.28558 6.03801 4.28492V4.28558H4.64305C4.24877 4.28558 3.92879 4.60554 3.92879 4.99983C3.92879 5.39411 4.24876 5.71425 4.64305 5.71425H10.3574C10.7517 5.71425 11.0717 5.39413 11.0717 4.99983C11.0717 4.60555 10.7517 4.28558 10.3574 4.28558L8.89814 4.2849Z" fill="#DBEAFE"/>
</g>
</svg>
