<svg width="26" height="20" viewBox="0 0 26 20" fill="none" xmlns="http://www.w3.org/2000/svg">
<path d="M10.8122 16.1723H25.4928C25.6245 16.1692 25.7519 16.2189 25.8469 16.31C25.9421 16.4008 25.9971 16.526 25.9999 16.6577V19.0852C25.9971 19.2167 25.9421 19.3418 25.8469 19.4329C25.7519 19.5239 25.6245 19.5734 25.4928 19.5706H10.8122C10.6807 19.5734 10.5533 19.5239 10.4581 19.4329C10.3631 19.3418 10.308 19.2167 10.3052 19.0852V16.6577C10.308 16.526 10.3631 16.4008 10.4581 16.31C10.5533 16.2189 10.6807 16.1692 10.8122 16.1723Z" fill="black"/>
<path d="M25.4928 3.39843H10.8122C10.6807 3.40145 10.5533 3.35178 10.4581 3.26072C10.3631 3.16985 10.308 3.04473 10.3052 2.91304V0.485513C10.308 0.354003 10.3631 0.228895 10.4581 0.137833C10.5533 0.0467752 10.6807 -0.00270793 10.8122 0.000114431H25.4928C25.6245 -0.0027076 25.7519 0.0467728 25.8469 0.137833C25.9421 0.22889 25.9971 0.354003 25.9999 0.485513V2.91304C25.9971 3.04473 25.9421 3.16984 25.8469 3.26072C25.7519 3.35177 25.6245 3.40145 25.4928 3.39843Z" fill="black"/>
<path d="M0.201872 9.36486L6.08164 4.01344C6.24344 3.88381 6.46525 3.85841 6.65228 3.94815C6.8391 4.0379 6.958 4.22679 6.95819 4.43412V8.0808H25.5116C25.7803 8.0808 25.9983 8.29772 25.9999 8.56619V10.9937C25.9984 11.2622 25.7803 11.4791 25.5116 11.4791H6.95819V15.1365C6.958 15.3438 6.8391 15.5327 6.65228 15.6225C6.46527 15.7122 6.24345 15.6868 6.08164 15.5572L0.201872 10.2058C0.0743162 10.1034 0 9.94879 0 9.78511C0 9.62143 0.0743162 9.46678 0.201872 9.36443V9.36486Z" fill="black"/>
</svg>
