<svg width="16" height="16" viewBox="0 0 16 16" fill="none" xmlns="http://www.w3.org/2000/svg">
<g id="Group 24">
<path id="Vector" d="M14.2754 0H1.72464C0.773026 0 0 0.773026 0 1.72464V14.2754C0 15.227 0.773026 16 1.72464 16H14.2754C15.227 16 16 15.227 16 14.2754V1.72464C16 0.773026 15.227 0 14.2754 0ZM15.0619 13.7231L11.5301 7.36334C11.2843 6.92207 10.9137 6.66938 10.5112 6.66938C10.107 6.66938 9.73643 6.92196 9.49053 7.36334L7.63621 10.7014L6.60039 9.25131C6.32078 8.85892 5.91488 8.63323 5.48877 8.63323C5.06432 8.63323 4.65842 8.85892 4.37893 9.25131L0.938019 14.0682V1.72437C0.938019 1.28981 1.28999 0.937838 1.72455 0.937838H14.2753C14.7098 0.937838 15.0618 1.28981 15.0618 1.72437L15.0619 13.7231Z" fill="#3C82F5"/>
<path id="Vector_2" d="M5.48868 2.30908C4.12272 2.30908 3.01123 3.41892 3.01123 4.78488C3.01123 6.15072 4.12284 7.26233 5.48868 7.26233C6.85452 7.26233 7.96614 6.15072 7.96614 4.78488C7.96614 3.41892 6.85464 2.30908 5.48868 2.30908Z" fill="#3C82F5"/>
</g>
</svg>
