<svg width="21" height="20" viewBox="0 0 21 20" fill="none" xmlns="http://www.w3.org/2000/svg">
<g id="Group 20">
<path id="Vector" d="M10.2988 5.80187C10.1766 5.67904 10.0101 5.61013 9.83674 5.61072H9.83601C9.66234 5.61043 9.49587 5.67963 9.37347 5.8029L8.87878 6.29982C8.8707 6.30643 8.86306 6.31333 8.85557 6.32083L8.0316 7.14848H8.03175C8.02058 7.15729 8.00986 7.1667 7.99972 7.17669L7.19016 7.98993L6.38177 7.18154C6.25732 7.05782 6.08909 6.98848 5.91367 6.98848C5.73825 6.98848 5.57001 7.05783 5.44557 7.18154L5.43808 7.18903C5.31569 7.31186 5.24692 7.47833 5.24707 7.65187C5.24736 7.82539 5.31642 7.99171 5.43911 8.1144L6.73854 9.40797L6.9153 9.58473V9.58458C6.98847 9.65775 7.08779 9.69889 7.19123 9.69889C7.29481 9.69889 7.39399 9.65775 7.46716 9.58458L10.3074 6.74445C10.4311 6.62015 10.5005 6.45177 10.5002 6.27635C10.4999 6.10106 10.4301 5.93283 10.306 5.80896L10.2988 5.80187Z" fill="#DBEAFE"/>
<path id="Vector_2" d="M20.5692 17.4109L16.4088 13.4272C16.0347 13.0692 15.5181 12.9005 15.0048 12.9691L14.1546 11.9941V11.9939C15.2117 10.5001 15.6919 8.67377 15.5064 6.85289C15.3206 5.03232 14.4818 3.34042 13.1448 2.09064C11.6607 0.70247 9.69082 -0.0474697 7.65923 0.00233073C5.62765 0.0519919 3.69702 0.897572 2.28237 2.35687C0.903155 3.847 0.163823 5.81878 0.223027 7.84845C0.282238 9.87796 1.13531 11.8031 2.59885 13.2103C3.91755 14.4791 5.65127 15.2273 7.47921 15.3165C9.30701 15.4055 11.1054 14.8294 12.5412 13.6948L13.5602 14.4921C13.5196 15.0082 13.7152 15.515 14.0922 15.87L18.291 19.8149C18.4171 19.9331 18.5833 19.9993 18.7561 20C18.8689 20 18.98 19.9709 19.0784 19.9155C19.4246 19.7197 19.7399 19.4736 20.0138 19.185L20.0474 19.1503C20.3144 18.8648 20.5385 18.542 20.7124 18.192C20.7749 18.0636 20.7947 17.9185 20.769 17.778C20.7433 17.6374 20.6733 17.5088 20.5693 17.4108L20.5692 17.4109ZM13.49 8.31139C13.3432 9.5215 12.8032 10.6499 11.9528 11.5234C11.0334 12.5141 9.78636 13.1385 8.44212 13.2807C7.09804 13.423 5.7479 13.0738 4.64127 12.2976C3.28981 11.3546 2.41661 9.86927 2.25002 8.22966C2.08326 6.59023 2.63966 4.95961 3.77367 3.7638C4.90765 2.5681 6.50653 1.9263 8.15265 2.00596C9.79869 2.08575 11.3281 2.87901 12.3413 4.17875C13.2615 5.3471 13.6751 6.83551 13.49 8.31136V8.31139Z" fill="#DBEAFE"/>
</g>
</svg>
