<svg width="17" height="20" viewBox="0 0 17 20" fill="none" xmlns="http://www.w3.org/2000/svg">
<g id="Group 21">
<path id="Vector" d="M16.8026 0.543176C16.8026 0.244 16.5599 0.001471 16.2607 0.001471C15.9614 0.001471 15.7189 0.24415 15.7189 0.543476L15.7235 17.1551C15.7235 18.1287 14.9348 18.916 13.9626 18.916H1.9849C1.6165 18.916 1.29508 18.6353 1.27679 18.2674C1.25542 17.8373 1.59778 17.4818 2.02327 17.4818H2.58416L2.58431 0.00012207H2.31338C1.14289 0.00012207 0.193848 0.949015 0.193848 2.11966V17.7882C0.193848 19.0098 1.18418 20 2.40575 20H13.9626C15.5323 20 16.8057 18.7268 16.8057 17.1554L16.8026 0.543176Z" fill="#DBEAFE"/>
<path id="Vector_2" d="M12.96 11.9168L12.8295 11.8144L12.7618 11.6631L12.5997 11.6325L12.4691 11.5292L12.3101 11.5782L12.148 11.5476L12.0304 11.6641L11.8715 11.7132L11.8214 11.8709L11.7037 11.9885L11.7332 12.1518L11.6831 12.3098L11.7844 12.4403L11.8138 12.6037L11.965 12.6722L12.0675 12.8029L12.2329 12.7941L12.383 12.8627L12.5257 12.7778L12.6911 12.768L12.7772 12.6265L12.9198 12.5416L12.9306 12.3761L13.0167 12.2335L12.9492 12.0822L12.96 11.9168Z" fill="#DBEAFE"/>
<path id="Vector_3" d="M14.2798 17.1422V0L3.26172 0.00161004V17.5856H13.8369C14.0816 17.5854 14.2801 17.3871 14.2801 17.1424L14.2798 17.1422ZM11.6167 5.30427C11.6449 5.24411 11.6895 5.19244 11.7459 5.15687L12.7144 4.53292C12.7804 4.49165 12.8675 4.50175 12.9212 4.55942L13.2686 4.93236C13.3224 4.99018 13.3271 5.07843 13.2804 5.14064L12.5903 6.06349C12.5774 6.08047 12.5629 6.09569 12.5476 6.11004C12.5151 6.14034 12.4766 6.1661 12.4341 6.1819C12.0871 6.31627 11.7693 6.5146 11.4966 6.76854L8.22635 9.81504L7.69386 9.24347L10.9641 6.19697C11.2368 5.94302 11.4571 5.63989 11.6167 5.30427ZM4.35607 5.6355L5.19315 6.08075C5.4228 6.11017 5.7135 5.74323 5.7135 5.74323C5.7135 5.74323 5.97257 5.25335 5.73531 5.04112L4.93086 4.59485C4.90905 4.58284 4.91242 4.54918 4.93628 4.54259C5.12348 4.48712 5.69066 4.35978 6.2142 4.67111C6.45263 4.81264 6.61479 5.0587 6.65945 5.33298C6.7139 5.66069 6.84885 6.18321 7.18081 6.51197L8.61989 7.93483L7.93737 8.56949L6.55697 7.23709C6.33815 7.02589 6.04101 6.91699 5.73833 6.93441C5.50209 6.94861 5.26482 6.88874 5.07207 6.7516C4.55832 6.38802 4.34271 5.9482 4.26002 5.71854C4.2385 5.65956 4.30159 5.60613 4.35603 5.63556L4.35607 5.6355ZM8.19151 10.7475C8.10266 10.8304 7.98235 10.8583 7.87228 10.833C7.88882 10.9454 7.85208 11.0638 7.76265 11.1471L5.99279 12.7958C5.56893 13.1907 4.9053 13.1671 4.5104 12.7433C4.1155 12.3194 4.13906 11.6558 4.56294 11.2609L6.3328 9.61219C6.42223 9.5289 6.54299 9.50051 6.65394 9.52495C6.63652 9.41342 6.67282 9.29545 6.76166 9.21261C6.90393 9.08014 7.12656 9.08805 7.259 9.23017L8.20906 10.2501C8.34152 10.3925 8.33378 10.6151 8.19151 10.7475ZM11.7737 12.9151C11.6464 12.815 11.5527 12.6877 11.494 12.5483C11.2588 11.9932 10.9465 11.4728 10.512 11.0537L8.97168 9.56678L9.64015 8.94414L11.1467 10.4333C11.5615 10.8447 12.0819 11.118 12.6381 11.2954C12.7894 11.3444 12.9309 11.4325 13.0495 11.5632C13.3031 11.8451 13.3586 12.2666 13.1856 12.6029C12.9071 13.1437 12.2266 13.2721 11.7737 12.9151Z" fill="#DBEAFE"/>
</g>
</svg>
