<svg width="36" height="36" viewBox="0 0 36 36" fill="none" xmlns="http://www.w3.org/2000/svg">
<g id="Group 15">
<path id="Vector" fill-rule="evenodd" clip-rule="evenodd" d="M28.2857 21.8571C28.2857 21.1474 27.7097 20.5714 27 20.5714H9C8.29027 20.5714 7.71429 21.1474 7.71429 21.8571V32.1429C7.71429 34.2732 9.44111 36 11.5714 36H24.4286C26.5589 36 28.2857 34.2732 28.2857 32.1429V21.8571ZM5.14286 28.2857V21.8571C5.14286 19.7268 6.86968 18 9 18H27C29.1303 18 30.8571 19.7268 30.8571 21.8571V28.2857H32.1429C34.2732 28.2857 36 26.5589 36 24.4286V11.5714C36 9.44111 34.2732 7.71429 32.1429 7.71429H3.85714C1.72682 7.71429 0 9.44111 0 11.5714V24.4286C0 26.5589 1.72682 28.2857 3.85714 28.2857H5.14286ZM6.42857 15.4286H10.2857C10.9954 15.4286 11.5714 14.8526 11.5714 14.1429C11.5714 13.4331 10.9954 12.8571 10.2857 12.8571H6.42857C5.71884 12.8571 5.14286 13.4331 5.14286 14.1429C5.14286 14.8526 5.71884 15.4286 6.42857 15.4286ZM7.71429 5.14286H28.2857V3.85714C28.2857 1.72682 26.5589 0 24.4286 0H11.5714C9.44111 0 7.71429 1.72682 7.71429 3.85714V5.14286Z" fill="#318E46"/>
</g>
</svg>
