<svg width="18" height="20" viewBox="0 0 18 20" fill="none" xmlns="http://www.w3.org/2000/svg">
<g id="Group 7">
<path id="Vector" d="M0.972168 7.99208V19.5999C0.972168 19.7239 1.03217 19.8399 1.12823 19.9159C1.20005 19.9719 1.28814 20 1.37207 20C1.40814 20 1.44006 19.996 1.47612 19.988L6.05593 18.776V6.34436L1.27223 7.60839C1.09621 7.65243 0.972223 7.81233 0.972223 7.99233L0.972168 7.99208Z" fill="#DBEAFE"/>
<path id="Vector_2" d="M16.8718 6.33174C16.7717 6.25977 16.6437 6.23169 16.5237 6.26376L15.6478 6.49578C15.4078 6.9758 15.1118 7.4957 14.7478 8.05979C13.6758 9.75178 12.4639 11.1957 12.4518 11.2076C12.3198 11.3677 12.1438 11.4875 11.9438 11.5597V19.9077L16.7276 18.6436C16.9036 18.5996 17.0276 18.4397 17.0276 18.2597V6.65184C17.0276 6.52785 16.9676 6.40785 16.8716 6.33189L16.8718 6.33174Z" fill="#DBEAFE"/>
<path id="Vector_3" d="M8.32792 8.0517C7.96791 7.49173 7.6719 6.97565 7.43187 6.49582L6.85596 6.34375V18.7754L11.1439 19.9074V11.5598C10.9439 11.4879 10.7599 11.3639 10.6198 11.1958C10.6198 11.1958 9.41198 9.7518 8.32796 8.05183L8.32792 8.0517Z" fill="#DBEAFE"/>
<path id="Vector_4" d="M15.5835 4.04004C15.5835 1.81217 13.7715 0 11.5435 0C9.31148 0 7.49951 1.81201 7.49951 4.04004C7.49951 4.86396 8.00746 6.07197 9.00353 7.62399C10.0236 9.22791 11.1835 10.6239 11.2355 10.6839C11.3115 10.7758 11.4235 10.8279 11.5435 10.8279C11.6595 10.8279 11.7716 10.7758 11.8475 10.6839C11.8995 10.6239 13.0595 9.22795 14.0754 7.628C15.0753 6.07212 15.5834 4.86412 15.5834 4.04004H15.5835ZM11.5435 6.42812C10.2276 6.42812 9.15953 5.35608 9.15953 4.0402C9.15953 2.72829 10.2274 1.66025 11.5435 1.66025C12.8555 1.66025 13.9234 2.72817 13.9234 4.0402C13.9234 5.35608 12.8554 6.42812 11.5435 6.42812Z" fill="#DBEAFE"/>
</g>
</svg>
