<svg width="25" height="30" viewBox="0 0 25 30" fill="none" xmlns="http://www.w3.org/2000/svg">
<rect width="25" height="30" fill="#1E1E1E"/>
<g id="Cropper-4 Light">
<rect width="1920" height="1080" transform="translate(-311 -545)" fill="#EEF6FF"/>
<rect id="Rectangle 11" x="-12" y="-376" width="601" height="541" rx="12" fill="white"/>
<g id="Frame 8">
<g id="Group 7">
<path id="Vector" d="M0 11.9881V29.3999C0 29.5859 0.0899995 29.7599 0.2341 29.8739C0.341825 29.9579 0.473951 30 0.59986 30C0.653954 30 0.701834 29.994 0.755923 29.982L7.62565 28.164V9.51654L0.450092 11.4126C0.186069 11.4786 8.27224e-05 11.7185 8.27224e-05 11.9885L0 11.9881Z" fill="#1F1F70"/>
<path id="Vector_2" d="M23.8499 9.49786C23.6998 9.3899 23.5079 9.34778 23.3278 9.39589L22.0139 9.74392C21.6539 10.464 21.2099 11.2438 20.6639 12.0899C19.0559 14.6279 17.2381 16.7937 17.2199 16.8117C17.022 17.0518 16.758 17.2316 16.458 17.3397V29.8617L23.6336 27.9657C23.8976 27.8996 24.0836 27.6598 24.0836 27.3898V9.97801C24.0836 9.79202 23.9936 9.61202 23.8497 9.49808L23.8499 9.49786Z" fill="#1F1F70"/>
<path id="Vector_3" d="M11.0336 12.0777C10.4936 11.2378 10.0496 10.4636 9.68956 9.74389L8.82568 9.51578V28.1633L15.2576 29.8613V17.3399C14.9577 17.2319 14.6817 17.0459 14.4715 16.7939C14.4715 16.7939 12.6597 14.6278 11.0337 12.0779L11.0336 12.0777Z" fill="#1F1F70"/>
<path id="Vector_4" d="M21.917 6.06006C21.917 2.71825 19.199 0 15.857 0C12.509 0 9.79102 2.71801 9.79102 6.06006C9.79102 7.29594 10.5529 9.10795 12.047 11.436C13.5771 13.8419 15.317 15.9358 15.395 16.0259C15.509 16.1638 15.677 16.2418 15.857 16.2418C16.031 16.2418 16.1991 16.1638 16.313 16.0259C16.391 15.9359 18.131 13.8419 19.6548 11.442C21.1547 9.10819 21.9169 7.29618 21.9169 6.06006H21.917ZM15.857 9.64218C13.8832 9.64218 12.281 8.03412 12.281 6.0603C12.281 4.09243 13.8829 2.49038 15.857 2.49038C17.825 2.49038 19.4269 4.09225 19.4269 6.0603C19.4269 8.03412 17.8248 9.64218 15.857 9.64218Z" fill="#1F1F70"/>
</g>
</g>
</g>
</svg>
