<svg width="33" height="30" viewBox="0 0 33 30" fill="none" xmlns="http://www.w3.org/2000/svg">
<path d="M20.408 4.89421C20.408 4.0951 20.541 3.36257 20.7742 2.66352H8.2224C4.12731 2.66352 0.797852 5.99291 0.797852 10.0881V17.2796C0.797852 21.3747 4.12725 24.7374 8.2224 24.7374H9.3211L8.45552 28.2665C8.15593 29.4983 9.52104 30.464 10.5863 29.7647L18.5103 24.7373H22.6388C26.7339 24.7373 30.0633 21.4079 30.0633 17.2795L30.0631 11.5529C29.264 11.8525 28.4317 12.019 27.5328 12.019C23.6043 12.019 20.4079 8.82271 20.4079 4.89414L20.408 4.89421Z" fill="#3C82F5"/>
<path d="M32.4271 4.89421C32.4271 7.59726 30.2359 9.78842 27.5329 9.78842C24.8298 9.78842 22.6387 7.59726 22.6387 4.89421C22.6387 2.19116 24.8298 0 27.5329 0C30.2359 0 32.4271 2.19116 32.4271 4.89421Z" fill="#FB5758"/>
</svg>
