<svg width="24" height="24" viewBox="0 0 24 24" fill="none" xmlns="http://www.w3.org/2000/svg">
<g id="Group 10">
<path id="Vector" d="M0.200536 7.74091C0.0453726 7.90796 -0.0254285 8.13661 0.00821295 8.36207C0.041857 8.58753 0.176266 8.78538 0.37344 8.89988L8.28139 13.4771L16.7879 7.21159L10.5254 15.7233L15.0975 23.624C15.1944 23.7925 15.3529 23.9167 15.5397 23.9706C15.7264 24.0245 15.9267 24.0037 16.0984 23.9128C16.2702 23.822 16.4001 23.6678 16.4605 23.4832L23.9592 0.984007C24.0173 0.807418 24.0076 0.615596 23.9321 0.445727C23.8568 0.275835 23.7209 0.13992 23.551 0.0645983C23.3811 -0.0108903 23.1893 -0.0206001 23.0127 0.0374825L0.513511 7.53664C0.39333 7.57698 0.28537 7.64711 0.199837 7.74051L0.200536 7.74091Z" fill="white"/>
</g>
</svg>
