<svg width="29" height="30" viewBox="0 0 29 30" fill="none" xmlns="http://www.w3.org/2000/svg">
<path d="M27.78 22.0569L27.769 22.0488C26.6361 21.2038 25.9661 19.8755 25.9596 18.4623V11.2709C25.9625 9.78511 25.6667 8.31378 25.0894 6.94437C24.5124 5.57521 23.6657 4.33588 22.6 3.30027C20.4544 1.18816 17.5649 0.00288226 14.5541 5.22356e-06C11.5431 -0.0028641 8.65128 1.17647 6.50146 3.28448C4.35158 5.39255 3.11562 8.26046 3.05943 11.271V18.4091C3.05369 19.8489 2.35859 21.1989 1.18954 22.0398C0.766786 22.3447 0.49348 22.815 0.437775 23.3334C0.382061 23.8516 0.549202 24.3693 0.897593 24.7571C1.24598 25.145 1.74265 25.3666 2.26388 25.3666H26.6826C27.2005 25.3666 27.6945 25.1478 28.0429 24.7643C28.3911 24.3808 28.5611 23.8678 28.5109 23.3521C28.4609 22.8366 28.1955 22.366 27.7799 22.0566L27.78 22.0569Z" fill="#3C82F5"/>
<path d="M14.4759 30C15.3408 29.999 16.1698 29.655 16.7814 29.0435C17.3928 28.4321 17.7369 27.6029 17.7381 26.738H11.2134C11.2146 27.6029 11.5587 28.4321 12.1701 29.0435C12.7817 29.655 13.6107 29.999 14.4756 30H14.4759Z" fill="#3C82F5"/>
</svg>
