<svg width="18" height="16" viewBox="0 0 18 16" fill="none" xmlns="http://www.w3.org/2000/svg">
<g id="Group 34">
<path id="Vector" d="M7.54541 0.00262451H17.4347V1.74789H7.54541V0.00262451Z" fill="#334155"/>
<path id="Vector_2" d="M7.54541 4.65637H17.4347V6.40164H7.54541V4.65637Z" fill="#334155"/>
<path id="Vector_3" d="M5.50928 9.31012H17.4345V11.0554H5.50928V9.31012Z" fill="#334155"/>
<path id="Vector_4" d="M5.50928 13.9639H17.4345V15.7091H5.50928V13.9639Z" fill="#334155"/>
<path id="Vector_5" d="M2.89161 10.1827C2.89161 10.8252 2.37082 11.346 1.72828 11.346C1.08574 11.346 0.564941 10.8252 0.564941 10.1827C0.564941 9.54017 1.08574 9.01917 1.72828 9.01917C2.37082 9.01917 2.89161 9.54017 2.89161 10.1827Z" fill="#334155"/>
<path id="Vector_6" d="M2.89161 14.8364C2.89161 15.479 2.37082 16 1.72828 16C1.08574 16 0.564941 15.479 0.564941 14.8364C0.564941 14.1939 1.08574 13.6731 1.72828 13.6731C2.37082 13.6731 2.89161 14.1939 2.89161 14.8364Z" fill="#334155"/>
<path id="1" d="M4.62651 7.67403C4.42168 7.67403 4.25342 7.61191 4.12175 7.48766C3.99007 7.35611 3.92423 7.19532 3.92423 7.00529V1.47999L4.07785 1.72118L3.27682 2.31317C3.1744 2.39357 3.04638 2.43376 2.89276 2.43376C2.71719 2.43376 2.56357 2.36799 2.43189 2.23643C2.30021 2.10488 2.23438 1.94774 2.23438 1.76503C2.23438 1.53115 2.34776 1.34113 2.57454 1.19496L4.15467 0.142518C4.22782 0.0913576 4.30829 0.0548148 4.39607 0.0328888C4.49117 0.0109629 4.57896 0 4.65943 0C4.87157 0 5.03983 0.0657773 5.16419 0.197332C5.28855 0.321578 5.35073 0.478713 5.35073 0.668737V7.00529C5.35073 7.19532 5.28124 7.35611 5.14224 7.48766C5.01057 7.61191 4.83865 7.67403 4.62651 7.67403Z" fill="#334155"/>
</g>
</svg>
