<svg width="23" height="21" viewBox="0 0 23 21" fill="none" xmlns="http://www.w3.org/2000/svg">
<path fill-rule="evenodd" clip-rule="evenodd" d="M2.57275 4.89854H5.39421V9.13082C5.39421 11.0396 8.29872 11.0396 8.29872 9.13082V4.89854H13.8586V9.13082C13.8586 11.0396 16.7631 11.0396 16.7631 9.13082V4.89854H19.5846C20.4144 4.89854 21.1614 5.31355 21.6593 5.89436V10.2926C21.6593 10.9565 21.3274 11.5375 20.9123 12.0353C20.4973 12.4503 19.8335 12.6992 19.1696 12.6992H12.5305V12.1182C12.5305 11.7863 12.2814 11.6203 12.0325 11.6203H11.9495V11.0394H11.3685V11.6203H10.7875V11.0394H10.2066V11.6203H10.1235C9.87446 11.6203 9.6256 11.7863 9.6256 12.1182V12.6992H2.98646C2.3226 12.6992 1.74159 12.4501 1.24373 12.0353C0.828712 11.5374 0.579865 10.9565 0.579865 10.2926V5.89436C0.994882 5.3134 1.74164 4.89854 2.57146 4.89854H2.57275ZM22.1575 11.3714V18.0105C22.1575 19.4213 20.9958 20.5 19.5849 20.5H2.5726C1.16177 20.5 0 19.4211 0 18.0105V11.3714C0.165968 11.7864 0.415017 12.2012 0.746964 12.5331C1.32792 13.1141 2.15779 13.4461 2.98761 13.4461H9.62674V13.944C9.62674 14.2759 9.87579 14.5249 10.1247 14.5249H12.0334C12.2824 14.5249 12.5313 14.2759 12.5313 13.944V13.4461H19.1704C20.0833 13.4461 20.8301 13.1141 21.4111 12.5331C21.743 12.2012 21.992 11.7862 22.158 11.3714H22.1575ZM14.606 9.13072C14.606 10.1265 16.0168 10.1265 16.0168 9.13072V2.49159C16.0168 1.41272 15.187 0.5 14.0252 0.5H8.13321C7.05434 0.5 6.14162 1.41292 6.14162 2.49159V9.13072C6.14162 10.1265 7.63535 10.1265 7.63535 9.13072V2.49159C7.63535 2.15965 7.80131 1.91063 8.13326 1.91063H14.0253C14.3572 1.91063 14.6062 2.15968 14.6062 2.49159V9.13072H14.606Z" fill="#3C82F5"/>
</svg>
