<svg width="29" height="40" viewBox="0 0 29 40" fill="none" xmlns="http://www.w3.org/2000/svg">
<g id="Frame 87">
<g id="Group 13">
<path id="Vector" fill-rule="evenodd" clip-rule="evenodd" d="M0 0.693352V39.3066C0 39.6532 0.34654 40 0.693352 40H27.4524C27.8685 40 28.1458 39.6535 28.1458 39.3066V0.693352C28.1458 0.346812 27.8685 0 27.4524 0H0.693352C0.346812 0 0 0.34654 0 0.693352ZM4.85268 4.09011H23.2925C23.7086 4.09011 23.9859 4.43665 23.9859 4.78347C23.9859 5.19948 23.7086 5.47682 23.2925 5.47682H4.85268C4.50614 5.47682 4.15933 5.19948 4.15933 4.78347C4.15933 4.43693 4.50587 4.09011 4.85268 4.09011ZM4.85268 7.90287H23.2925C23.7086 7.90287 23.9859 8.18021 23.9859 8.59622C23.9859 8.94276 23.7086 9.28958 23.2925 9.28958H4.85268C4.50614 9.28958 4.15933 8.94304 4.15933 8.59622C4.15933 8.18021 4.50587 7.90287 4.85268 7.90287ZM23.2925 11.6464C23.7086 11.6464 23.9859 11.993 23.9859 12.409C23.9859 12.7555 23.7086 13.1023 23.2925 13.1023H4.85268C4.50614 13.1023 4.15933 12.7558 4.15933 12.409C4.15933 11.993 4.50587 11.6464 4.85268 11.6464H23.2925ZM23.2925 15.4592C23.7086 15.4592 23.9859 15.8057 23.9859 16.1525C23.9859 16.5685 23.7086 16.8459 23.2925 16.8459H4.85268C4.50614 16.8459 4.15933 16.5685 4.15933 16.1525C4.15933 15.806 4.50587 15.4592 4.85268 15.4592H23.2925ZM13.379 22.0448C13.379 21.6982 13.6564 21.3514 14.0724 21.3514C14.4884 21.3514 14.7658 21.698 14.7658 22.0448V23.0847C15.0431 23.1539 15.3204 23.2926 15.5283 23.4312C15.9443 23.7086 16.2909 24.0551 16.4987 24.5403C16.7066 24.8868 16.5679 25.3029 16.2214 25.4415C15.8749 25.6494 15.4588 25.5107 15.251 25.1642C15.1818 24.8868 14.9736 24.7481 14.7658 24.6095C14.5579 24.4708 14.3498 24.4016 14.0724 24.4016C13.7259 24.4016 13.3791 24.5403 13.1712 24.7482C12.8939 25.0255 12.7552 25.372 12.7552 25.7186C12.7552 26.689 13.5178 26.8971 14.2111 27.0358C15.5283 27.3823 16.7761 27.6597 16.7761 29.7395C16.7761 30.502 16.4988 31.1954 16.0135 31.6806C15.667 32.0271 15.251 32.2353 14.7658 32.374V33.4139C14.7658 33.7604 14.4884 34.1072 14.0724 34.1072C13.6564 34.1072 13.379 33.7607 13.379 33.4139V32.374C13.1017 32.3048 12.8244 32.1661 12.6165 32.0274C12.2005 31.7501 11.8539 31.4035 11.6461 30.9183C11.4382 30.5718 11.5769 30.1558 11.9234 30.0171C12.2699 29.8093 12.686 29.9479 12.8938 30.2945C12.963 30.5718 13.1712 30.7105 13.379 30.8492C13.5869 30.9878 13.795 31.057 14.0724 31.057C14.4189 31.057 14.7657 30.9184 15.0428 30.7105C15.2507 30.4332 15.3893 30.0866 15.3893 29.7401C15.3893 28.7697 14.6268 28.5615 13.9334 28.4229C12.6162 28.0763 11.3684 27.799 11.3684 25.7192C11.3684 24.9566 11.6458 24.2633 12.131 23.778C12.4776 23.4315 12.8936 23.2234 13.3788 23.0847V22.0448H13.379Z" fill="#5E2E9F"/>
</g>
</g>
</svg>
