<svg width="36" height="40" viewBox="0 0 36 40" fill="none" xmlns="http://www.w3.org/2000/svg">
<g id="Frame 101">
<g id="Group 57">
<path id="Vector" d="M0.000936064 0V36.7252H18.4227V36.7255C17.1949 34.857 16.6083 32.6399 16.7516 30.4088L4.69197 30.3883C4.54752 30.3912 4.40774 30.3357 4.30423 30.2345C4.20101 30.133 4.14311 29.9944 4.14311 29.8497C4.14341 29.7049 4.20189 29.5663 4.30541 29.4655C4.40921 29.3643 4.54899 29.3093 4.69373 29.3125L16.8768 29.3339C17.0722 28.213 17.4517 27.1323 18.0003 26.1357L4.69208 26.1129C4.54734 26.1158 4.40756 26.0603 4.30434 25.9588C4.20112 25.8573 4.14293 25.7187 4.14323 25.574C4.14352 25.4293 4.202 25.2909 4.30552 25.1898C4.40903 25.0886 4.5491 25.0336 4.69355 25.0368L18.6837 25.0614C18.9279 24.7158 19.1931 24.3856 19.4779 24.0724C20.3268 23.1645 21.3332 22.4177 22.4482 21.8683L4.69198 21.8379V21.8381C4.39459 21.8376 4.15394 21.5963 4.15452 21.2989C4.15511 21.0015 4.39635 20.7609 4.69373 20.7615L23.254 20.7934H23.2537C23.5423 20.7904 23.7818 21.0153 23.7967 21.3033C25.1321 20.8644 26.5436 20.7033 27.9436 20.8302V0.000283989H0L0.000936064 0ZM4.69384 5.79766L23.2533 5.83041C23.3981 5.82778 23.5378 5.88333 23.6411 5.9848C23.7443 6.08627 23.8022 6.22487 23.8019 6.36961C23.8016 6.51436 23.7428 6.65267 23.6393 6.75384C23.5355 6.85473 23.3957 6.9097 23.251 6.9062L4.69225 6.87345C4.5475 6.87637 4.40773 6.82081 4.30451 6.71963C4.20129 6.61817 4.1431 6.47957 4.14339 6.33482C4.14368 6.19008 4.20217 6.05147 4.30568 5.95059C4.4092 5.84941 4.54926 5.79445 4.69401 5.79766H4.69384ZM4.69384 16.4866L23.2533 16.5185C23.3981 16.5158 23.5378 16.5714 23.6411 16.6729C23.7443 16.7743 23.8022 16.9129 23.8019 17.0577C23.8016 17.2024 23.7428 17.3407 23.6393 17.4419C23.5355 17.5428 23.3957 17.5978 23.251 17.5943L4.69225 17.5624C4.5475 17.5653 4.40773 17.5097 4.30451 17.4086C4.20129 17.3071 4.1431 17.1685 4.14339 17.0238C4.14368 16.879 4.20217 16.7404 4.30568 16.6395C4.4092 16.5383 4.54926 16.4834 4.69401 16.4866H4.69384ZM26.8248 22.1638H26.8251C24.4147 22.2173 22.1287 23.2443 20.4879 25.0107C18.8779 26.7438 18.0226 29.0457 18.1097 31.4096C18.1971 33.7737 19.2197 36.006 20.9528 37.616C22.6859 39.2258 24.9875 40.0811 27.3514 39.9939C29.715 39.9071 31.9475 38.8846 33.5576 37.152C35.1673 35.4189 36.0229 33.1173 35.9358 30.7537C35.8489 28.3898 34.8267 26.1575 33.0941 24.5472C31.394 22.9676 29.1451 22.1126 26.8248 22.1637L26.8248 22.1638ZM27.1154 24.399H27.1157C27.2611 24.3969 27.4011 24.4537 27.5038 24.5563C27.6067 24.6589 27.6637 24.799 27.6617 24.9443V29.9437C27.8631 30.054 28.0313 30.2159 28.1488 30.4133C28.2661 30.6107 28.3284 30.8359 28.329 31.0654C28.3298 31.4055 28.1956 31.7315 27.9561 31.9727C27.7163 32.2137 27.3909 32.3497 27.0508 32.3508C26.9303 32.3508 26.8104 32.3336 26.6946 32.3003L24.1451 34.8679V34.8677C24.0456 34.9735 23.9076 35.0346 23.7623 35.0373C23.617 35.0396 23.4769 34.9832 23.374 34.8808C23.271 34.7785 23.2137 34.6387 23.2152 34.4934C23.2166 34.3483 23.2769 34.2097 23.3822 34.1097L25.8793 31.5944C25.8051 31.4309 25.7659 31.254 25.7647 31.0744V31.068C25.7644 30.8086 25.8428 30.5557 25.9896 30.3419C26.1361 30.1282 26.344 29.9641 26.5858 29.8709V24.9443C26.5817 24.6475 26.8189 24.4037 27.1157 24.399H27.1154Z" fill="#C7554A"/>
</g>
</g>
</svg>
