<svg width="22" height="19" viewBox="0 0 22 19" fill="none" xmlns="http://www.w3.org/2000/svg">
<path d="M0.942787 10.6525C1.0156 10.7343 1.11091 10.7844 1.22958 10.8025C1.33854 10.8116 1.44784 10.7798 1.55696 10.7069L10.8497 2.95849C10.9326 2.88927 11.0673 2.88927 11.1501 2.95849L20.4429 10.7073C20.5157 10.7709 20.6113 10.803 20.7293 10.803H20.7706C20.8886 10.7849 20.9844 10.7348 21.0574 10.6529L21.9031 9.64315C21.9759 9.55227 22.0078 9.44519 21.9984 9.32242C21.9895 9.19948 21.9396 9.10195 21.8485 9.02914L18.86 6.54565V0.977613C18.86 0.850242 18.8193 0.745891 18.7371 0.664047C18.6554 0.581862 18.5509 0.54111 18.4237 0.54111H15.8033C15.6758 0.54111 15.5716 0.581861 15.4894 0.664047C15.4072 0.745891 15.3665 0.850582 15.3665 0.977613V3.63858L12.0369 0.855C11.746 0.618332 11.4001 0.5 11.0001 0.5C10.5997 0.5 10.2541 0.618332 9.96284 0.855L0.151551 9.02897C0.0603304 9.10178 0.0105384 9.1993 0.00150277 9.32224C-0.00753417 9.44501 0.0241805 9.55175 0.0968178 9.64297L0.942787 10.6525Z" fill="#93C5FD"/>
<path d="M10.8487 4.1586C10.8487 4.1586 4.36665 9.5193 3.29547 10.4168C3.21277 10.4861 3.14559 10.6306 3.14508 10.7387C3.14338 11.2248 3.14116 15.3752 3.14014 17.3041C3.14014 17.8443 3.57764 18.2823 4.11782 18.2823H17.8812C18.4214 18.2823 18.8592 17.8443 18.8592 17.3041L18.8594 10.7797C18.8594 10.6719 18.7924 10.5282 18.7095 10.4588L11.1506 4.15831C11.0674 4.08977 10.9322 4.08977 10.8488 4.15831L10.8487 4.1586ZM12.3131 8.94835C12.3131 8.94835 11.4442 9.81879 10.841 10.4227C10.7943 10.4691 10.7943 10.545 10.841 10.5914C11.0931 10.8427 11.3451 11.0954 11.5976 11.3477C11.644 11.3941 11.7198 11.395 11.7672 11.3489L12.539 10.5997C12.6698 10.5128 12.6698 10.4394 12.6583 10.3218C12.6473 10.2096 12.6065 10.0607 12.6184 9.90506C12.6184 9.89841 12.6191 9.89227 12.6184 9.88545C12.6005 9.33524 12.8011 8.84483 13.2337 8.59519C13.4664 8.461 13.7575 8.4003 14.0276 8.43679C14.2988 8.47243 14.5575 8.59929 14.802 8.77406C14.8032 8.77508 14.8678 8.81686 14.9594 8.91439C15.1139 9.05915 14.9284 9.1427 14.9284 9.1427L13.8842 9.63647C13.7622 9.69274 13.7089 9.83699 13.7653 9.9589L14.1293 10.7487C14.1853 10.8706 14.3299 10.9242 14.4518 10.8677L15.5171 10.3558C15.5171 10.3558 15.7301 10.2402 15.7517 10.4414C15.7974 10.7881 15.8155 11.6016 15.2383 12.0087C15.0037 12.1445 14.7241 12.174 14.4639 12.1479C14.1694 12.0984 13.9842 11.9608 13.869 11.9095C13.811 11.8838 13.7842 11.8792 13.7501 11.8894C13.7152 11.8996 13.665 11.9339 13.5915 12.0285L13.0328 12.6137C12.9871 12.6614 12.9878 12.7382 13.035 12.7846C13.5797 13.3297 14.1249 13.8749 14.6698 14.4189C14.6698 14.4189 15.0279 14.9539 14.3416 15.688C13.5873 16.4953 13.0911 16.1971 13.0911 16.1971C12.5336 15.638 11.9978 15.0364 11.4651 14.4281C11.4222 14.3783 11.3497 14.3768 11.3045 14.4243L9.84034 15.9577C9.84085 15.964 9.27341 16.3221 8.6599 15.6651C8.0464 15.008 8.46484 14.5479 8.47115 14.5485L10.0565 13.0094C10.1038 12.9634 10.1063 12.8867 10.062 12.8379C9.80725 12.5578 9.55027 12.2825 9.28837 12.0169C9.24216 11.9702 9.16543 11.969 9.11718 12.0136C8.83089 12.2813 7.92753 13.1122 7.75686 13.1097C7.55378 13.1073 6.66612 12.1952 6.25996 11.7887C6.21051 11.7319 6.22841 11.6936 6.24973 11.6494C6.24973 11.6494 8.67437 9.10185 8.93134 8.96985C9.1883 8.83754 11.3708 8.60291 11.8636 8.52859C12.6222 8.42764 12.3131 8.94821 12.3131 8.94821V8.94835Z" fill="#93C5FD"/>
</svg>
