<svg width="21" height="20" viewBox="0 0 21 20" fill="none" xmlns="http://www.w3.org/2000/svg">
<path d="M19.6974 13.3846H16.2144C15.9105 13.3837 15.6188 13.5039 15.404 13.7187C15.1892 13.9336 15.069 14.2253 15.0698 14.5292V19.9998H20.8418V14.5292C20.8426 14.2253 20.7222 13.9336 20.5074 13.7187C20.2925 13.5039 20.0011 13.3837 19.6972 13.3846H19.6974Z" fill="#93C5FD"/>
<path d="M12.5837 5.61533H9.10066C8.79675 5.61447 8.50528 5.73488 8.29045 5.94972C8.07561 6.16456 7.9552 6.45624 7.95606 6.75993V19.9906H13.728V6.75993C13.7289 6.45624 13.6085 6.16455 13.3936 5.94972C13.1788 5.73489 12.8873 5.61447 12.5834 5.61533H12.5837Z" fill="#93C5FD"/>
<path d="M5.46941 4.6034e-06H1.9864C1.68249 -0.000853908 1.39102 0.119553 1.17619 0.334393C0.961344 0.549238 0.840939 0.840698 0.841801 1.14461V20H6.61375V1.14461C6.61461 0.840698 6.49441 0.549227 6.27957 0.334393C6.06473 0.119548 5.77305 -0.000858029 5.46914 4.6034e-06H5.46941Z" fill="#93C5FD"/>
</svg>
