<svg width="21" height="20" viewBox="0 0 21 20" fill="none" xmlns="http://www.w3.org/2000/svg">
<path d="M15.5196 11.221C15.8143 11.1789 16.0249 10.9263 16.0249 10.6315V9.36832C16.0249 9.07359 15.8143 8.82099 15.5196 8.77885L14.425 8.61041C14.2776 8.27354 14.2566 8.1894 14.1093 7.85252L14.783 6.96832C14.9515 6.73674 14.9305 6.39987 14.7199 6.18942L13.8147 5.28424C13.6041 5.07365 13.2674 5.05265 13.0358 5.22109L12.1516 5.89485C11.8147 5.74741 11.7306 5.72641 11.3937 5.57912L11.2253 4.48436C11.1831 4.18963 10.9305 3.97906 10.6358 3.97906L9.37231 3.97891C9.07759 3.97891 8.82499 4.1895 8.78285 4.48421L8.61441 5.57882C8.27753 5.72626 8.1934 5.74726 7.85652 5.89455L6.97232 5.2208C6.74073 5.05236 6.40387 5.07336 6.19342 5.28394L5.28824 6.18912C5.07765 6.39971 5.05665 6.73645 5.22509 6.96802L5.89884 7.85223C5.75141 8.1891 5.73041 8.27324 5.58312 8.61011L4.48835 8.77855C4.19363 8.8207 3.98306 9.07328 3.98306 9.36802L3.98291 10.6315C3.98291 10.9262 4.19349 11.1788 4.48821 11.221L5.58297 11.3894C5.73041 11.7263 5.75141 11.8104 5.8987 12.1473L5.22494 13.0315C5.0565 13.2631 5.0775 13.6 5.28809 13.8104L6.19327 14.7156C6.40385 14.9262 6.74059 14.9472 6.97217 14.7787L7.85637 14.105C8.19325 14.2524 8.27738 14.2734 8.61426 14.4207L8.7827 15.5155C8.82485 15.8102 9.07743 16.0208 9.37217 16.0208L10.6355 16.0209C10.9302 16.0209 11.1828 15.8103 11.225 15.5156L11.3934 14.4208C11.7303 14.2734 11.8144 14.2524 12.1513 14.1051L13.0355 14.7789C13.2671 14.9473 13.604 14.9263 13.8144 14.7157L14.7196 13.8105C14.9302 13.6 14.9512 13.2632 14.7827 13.0316L14.109 12.1474C14.2564 11.8106 14.2774 11.7264 14.4247 11.3896L15.5196 11.221ZM10.0039 12.442C8.65652 12.442 7.56175 11.3473 7.56175 9.99993C7.56175 8.65257 8.65652 7.55781 10.0039 7.55781C11.3512 7.55781 12.446 8.65257 12.446 9.99993C12.446 11.3473 11.3512 12.442 10.0039 12.442Z" fill="#93C5FD"/>
<path d="M10.0041 8.65263C9.26718 8.65263 8.65674 9.2421 8.65674 9.99999C8.65674 10.7369 9.24621 11.3473 10.0041 11.3473C10.741 11.3473 11.3514 10.7579 11.3514 9.99999C11.3514 9.26308 10.741 8.65263 10.0041 8.65263Z" fill="#93C5FD"/>
<path d="M1.37249 11.6421C0.825163 8.77892 1.73036 5.85264 3.79344 3.7895C5.45666 2.12628 7.66709 1.2211 10.0039 1.2211C12.0881 1.2211 14.067 1.95801 15.646 3.2842L14.9934 3.93679C14.8249 4.10523 14.7828 4.33682 14.8459 4.54724C14.9091 4.75782 15.0985 4.9261 15.3091 4.96825L18.0038 5.45242H18.1091C18.2775 5.45242 18.4248 5.38927 18.5301 5.28398C18.6775 5.13654 18.7407 4.9471 18.6985 4.73665L18.2144 2.04194C18.1722 1.81036 18.0038 1.64191 17.7934 1.57879C17.5828 1.51564 17.3512 1.57879 17.1829 1.72622L16.5092 2.42096C14.6987 0.86315 12.425 0 10.004 0C7.33027 0 4.82507 1.03161 2.93035 2.92629C0.593527 5.26311 -0.438118 8.61045 0.172515 11.8525C0.235661 12.1472 0.488242 12.3578 0.761984 12.3578C0.80413 12.3578 0.846129 12.3578 0.867276 12.3368C1.22515 12.2945 1.43558 11.9576 1.37246 11.6419L1.37249 11.6421Z" fill="#93C5FD"/>
<path d="M19.8357 8.14739C19.7726 7.81052 19.4568 7.60007 19.12 7.66323C18.7831 7.72637 18.5726 8.04209 18.6358 8.37897C19.1831 11.2421 18.2779 14.1684 16.2148 16.2315C14.5516 17.8738 12.3412 18.7789 10.0044 18.7789C7.92013 18.7789 5.94124 18.042 4.36231 16.7158L5.0149 16.0633C5.18334 15.8948 5.22548 15.6632 5.16233 15.4528C5.09919 15.2422 4.90975 15.0739 4.69918 15.0318L2.00447 14.5476C1.81503 14.5055 1.60444 14.5686 1.45714 14.7161C1.3097 14.8635 1.24656 15.0529 1.28871 15.2634L1.77287 17.9581C1.81502 18.1897 1.98346 18.3581 2.19388 18.4213C2.25703 18.4423 2.32018 18.4423 2.38332 18.4423C2.55176 18.4423 2.69905 18.3791 2.80433 18.2738L3.49906 17.5791C5.30957 19.137 7.58324 20.0001 10.0043 20.0001C12.678 20.0001 15.1832 18.9684 17.0779 17.0738C19.4147 14.7369 20.4464 11.3896 19.8357 8.14753L19.8357 8.14739Z" fill="#93C5FD"/>
</svg>
