<svg width="23" height="24" viewBox="0 0 23 24" fill="none" xmlns="http://www.w3.org/2000/svg">
<g id="Group 37">
<path id="Vector" d="M6.88428 4.61538C6.88428 4.69698 6.91663 4.77527 6.97432 4.83296C7.03201 4.89066 7.1103 4.923 7.1919 4.923H13.3459C13.4275 4.923 13.5058 4.89066 13.5635 4.83296C13.6212 4.77527 13.6535 4.69698 13.6535 4.61538V0H6.88449L6.88428 4.61538Z" fill="white"/>
<path id="Vector_2" d="M17.346 13.2306C17.346 13.149 17.3136 13.0707 17.2559 13.013C17.1982 12.9553 17.1199 12.923 17.0383 12.923H5.96143C5.79144 12.923 5.65381 13.0608 5.65381 13.2306V24H17.3463L17.346 13.2306ZM13.9615 20.3077H9.03828C8.70861 20.3077 8.40389 20.1317 8.23906 19.8462C8.07402 19.5606 8.07402 19.2087 8.23906 18.9231C8.40389 18.6375 8.70863 18.4615 9.03828 18.4615H13.9615C14.2912 18.4615 14.5959 18.6375 14.7607 18.9231C14.9258 19.2087 14.9258 19.5606 14.7607 19.8462C14.5959 20.1317 14.2912 20.3077 13.9615 20.3077ZM14.577 16.6154H8.42293C8.09306 16.6154 7.78833 16.4394 7.6235 16.1538C7.45866 15.8683 7.45866 15.5163 7.6235 15.2308C7.78833 14.9452 8.09307 14.7692 8.42293 14.7692H14.577H14.5767C14.9066 14.7692 15.2113 14.9452 15.3762 15.2308C15.541 15.5164 15.541 15.8683 15.3762 16.1538C15.2113 16.4394 14.9066 16.6154 14.5767 16.6154H14.577Z" fill="white"/>
<path id="Vector_3" d="M0.115355 3.3848V20.6152C0.115973 21.5128 0.472839 22.3732 1.10727 23.0078C1.74187 23.6424 2.60255 23.9993 3.49983 23.9999H3.80745L3.80766 13.2305C3.80827 12.6596 4.03534 12.1121 4.4392 11.7083C4.84304 11.3046 5.3905 11.0774 5.96143 11.0767H17.0383C17.6093 11.0773 18.1567 11.3046 18.5606 11.7083C18.9644 12.1121 19.1915 12.6596 19.1921 13.2305V23.9999H19.5C20.3973 23.9993 21.2579 23.6424 21.8925 23.0078C22.5269 22.3732 22.8838 21.5127 22.8844 20.6152V7.93847C22.885 7.17036 22.6248 6.42468 22.146 5.82404L18.5017 1.27027V1.27006C17.86 0.464824 16.8852 -0.00309666 15.8556 1.54259e-05H15.4998V4.6154C15.4992 5.18633 15.2721 5.7338 14.8683 6.13763C14.4644 6.54146 13.917 6.76854 13.346 6.76917H7.19201C6.62108 6.76855 6.07361 6.5415 5.66978 6.13763C5.26614 5.73379 5.03887 5.18633 5.03824 4.6154V1.54259e-05H3.49971C2.60237 0.000633571 1.74175 0.357499 1.10715 0.992138C0.472755 1.62674 0.115867 2.48721 0.115234 3.3847L0.115355 3.3848Z" fill="white"/>
</g>
</svg>
