<svg width="40" height="40" viewBox="0 0 40 40" fill="none" xmlns="http://www.w3.org/2000/svg">
<path d="M18.5087 29.5303H21.4589C22.1218 29.5303 22.6854 28.9999 22.6854 28.3038V26.4806C22.6854 25.8177 22.1549 25.2542 21.4589 25.2542H18.5087C17.8458 25.2542 17.2822 25.7846 17.2822 26.4806V28.3038C17.3153 28.9998 17.8457 29.5303 18.5087 29.5303Z" fill="#1F1F70"/>
<path d="M10.9174 29.5303H13.8676C14.5305 29.5303 15.094 28.9999 15.094 28.3038V26.4806C15.094 25.8177 14.5636 25.2542 13.8676 25.2542H10.9174C10.2544 25.2542 9.69092 25.7846 9.69092 26.4806V28.3038C9.69092 28.9998 10.2214 29.5303 10.9174 29.5303Z" fill="#1F1F70"/>
<path d="M26.1327 29.5303H29.0829C29.7459 29.5303 30.3094 28.9999 30.3094 28.3038V26.4806C30.3094 25.8177 29.7789 25.2542 29.0829 25.2542H26.1327C25.4698 25.2542 24.9063 25.7846 24.9063 26.4806V28.3038C24.906 28.9998 25.4695 29.5303 26.1327 29.5303Z" fill="#1F1F70"/>
<path d="M18.5087 22.9005H21.4589C22.1218 22.9005 22.6854 22.3701 22.6854 21.6741V19.8508C22.6854 19.1879 22.1549 18.6244 21.4589 18.6244H18.5087C17.8458 18.6244 17.2822 19.1548 17.2822 19.8508V21.6741C17.3153 22.337 17.8457 22.9005 18.5087 22.9005Z" fill="#1F1F70"/>
<path d="M10.9174 22.9005H13.8676C14.5305 22.9005 15.094 22.3701 15.094 21.6741V19.8508C15.094 19.1879 14.5636 18.6244 13.8676 18.6244H10.9174C10.2544 18.6244 9.69092 19.1548 9.69092 19.8508V21.6741C9.69092 22.337 10.2214 22.9005 10.9174 22.9005Z" fill="#1F1F70"/>
<path d="M26.1327 22.9005H29.0829C29.7459 22.9005 30.3094 22.3701 30.3094 21.6741V19.8508C30.3094 19.1879 29.7789 18.6244 29.0829 18.6244H26.1327C25.4698 18.6244 24.9063 19.1548 24.9063 19.8508V21.6741C24.906 22.337 25.4695 22.9005 26.1327 22.9005Z" fill="#1F1F70"/>
<path d="M31.8012 7.71844H29.746V9.04428C29.746 10.5359 28.5196 11.7626 27.0277 11.7626C25.5361 11.7626 24.3094 10.5362 24.3094 9.04428V7.71844H15.6907V9.04428C15.6907 10.5359 14.4643 11.7626 12.9724 11.7626C11.4808 11.7626 10.2541 10.5362 10.2541 9.04428V7.71844H8.19892C6.01128 7.71844 4.25439 9.47533 4.25439 11.6632V31.0552C4.25439 33.2098 6.01128 35 8.19916 35H31.8011C33.9556 35 35.7459 33.2431 35.7459 31.0552V11.6632C35.7459 9.47533 33.989 7.71844 31.8011 7.71844H31.8012ZM32.7294 31.022C32.7294 31.5192 32.3317 31.9171 31.8343 31.9171H8.19922C7.70208 31.9171 7.30414 31.5194 7.30414 31.022V16.2377H32.7293L32.7294 31.022Z" fill="#1F1F70"/>
<path d="M12.9729 10.5692C13.8017 10.5692 14.4979 9.90626 14.4979 9.04421L14.4977 6.52496C14.4977 5.69624 13.8348 5 12.9727 5C12.144 5 11.4478 5.66292 11.4478 6.52496L11.448 9.04421C11.448 9.9062 12.1109 10.5692 12.9729 10.5692Z" fill="#1F1F70"/>
<path d="M27.0279 10.5692C27.8566 10.5692 28.5529 9.90626 28.5529 9.04421V6.52496C28.5529 5.69624 27.8899 5 27.0279 5C26.1992 5 25.5029 5.66292 25.5029 6.52496L25.5032 9.04421C25.5362 9.9062 26.1992 10.5692 27.0279 10.5692Z" fill="#1F1F70"/>
<rect x="0.5" y="0.5" width="39" height="39" rx="7.5" stroke="#D0D0D0"/>
</svg>
