<svg width="33" height="32" viewBox="0 0 33 32" fill="none" xmlns="http://www.w3.org/2000/svg">
<path d="M28.5354 13.3843V12.3992C28.5354 5.57117 22.9642 0 16.1361 0C9.30805 0 3.73688 5.57117 3.73688 12.3992V13.3843C1.56277 14.1996 0 16.3057 0 18.7516C0 21.9108 2.5817 24.4927 5.74108 24.4927H7.81328C8.35687 24.4927 8.79831 24.051 8.79831 23.5077V13.9959C8.79831 13.4523 8.35662 13.0109 7.81328 13.0109H6.86211V12.3995C6.86211 7.27006 11.0065 3.12559 16.1361 3.12559C21.2656 3.12559 25.41 7.27 25.41 12.3995V13.0109H24.4588C23.9153 13.0109 23.4738 13.4526 23.4738 13.9959V23.5077C23.4738 24.0513 23.9155 24.4927 24.4588 24.4927H24.9005C23.9155 26.7687 21.7414 28.3653 19.1595 28.5691C19.0237 27.9236 18.446 27.4142 17.7327 27.4142H14.5056C13.6902 27.4142 13.0449 28.0597 13.0449 28.8748V30.5394C13.0449 31.3547 13.6904 32 14.5056 32H17.7327C18.4462 32 19.0575 31.4905 19.1595 30.7771C22.9982 30.5733 26.1914 27.9575 27.2784 24.4246C30.0641 24.0509 32.2382 21.6389 32.2382 18.7515C32.2721 16.2719 30.7094 14.1997 28.5353 13.3843L28.5354 13.3843Z" fill="#3C82F5"/>
<path d="M14.234 13.0446C14.234 12.501 14.4719 11.9574 14.9133 11.584C15.355 11.2103 15.8983 11.0745 16.4761 11.1764C17.2234 11.3122 17.8689 11.9237 17.9708 12.6711C18.1746 13.7583 17.4614 14.5734 16.6799 14.8113C15.5927 15.1512 14.8795 16.17 14.8795 17.3591V18.4122C14.8795 19.0915 15.423 19.6351 16.1024 19.6351C16.7817 19.6351 17.3253 19.0915 17.3253 18.4122V17.3591C17.3253 17.2572 17.3933 17.1554 17.4272 17.1554C19.4994 16.476 20.7563 14.4038 20.3826 12.2297C20.0769 10.4632 18.6502 9.03639 16.8836 8.73072C15.5927 8.49281 14.3019 8.83261 13.3167 9.68189C12.3316 10.4972 11.7539 11.7202 11.7539 13.0109C11.7539 13.6903 12.2975 14.2339 12.9768 14.2339C13.6903 14.2675 14.234 13.7239 14.234 13.0446Z" fill="#3C82F5"/>
<path d="M17.4607 22.0128C17.4607 22.7445 16.8676 23.3376 16.1359 23.3376C15.4041 23.3376 14.811 22.7445 14.811 22.0128C14.811 21.281 15.4041 20.6879 16.1359 20.6879C16.8676 20.6879 17.4607 21.281 17.4607 22.0128Z" fill="#3C82F5"/>
</svg>
