<svg width="24" height="16" viewBox="0 0 24 16" fill="none" xmlns="http://www.w3.org/2000/svg">
<g id="Group 28">
<path id="Vector" d="M3.76494 1.41177C3.76494 2.19146 3.13285 2.82353 2.35317 2.82353C1.57349 2.82353 0.941406 2.19144 0.941406 1.41177C0.941406 0.632088 1.57349 0 2.35317 0C3.13285 0 3.76494 0.632088 3.76494 1.41177Z" fill="#334155"/>
<path id="Vector_2" d="M5.64746 0.470581H23.0592V2.35294H5.64746V0.470581Z" fill="#334155"/>
<path id="Vector_3" d="M3.76494 5.80392C3.76494 6.58361 3.13285 7.21568 2.35317 7.21568C1.57349 7.21568 0.941406 6.58359 0.941406 5.80392C0.941406 5.02424 1.57349 4.39215 2.35317 4.39215C3.13285 4.39215 3.76494 5.02424 3.76494 5.80392Z" fill="#334155"/>
<path id="Vector_4" d="M5.64746 4.86279H23.0592V6.74515H5.64746V4.86279Z" fill="#334155"/>
<path id="Vector_5" d="M3.76494 10.1961C3.76494 10.9758 3.13285 11.6078 2.35317 11.6078C1.57349 11.6078 0.941406 10.9757 0.941406 10.1961C0.941406 9.41639 1.57349 8.7843 2.35317 8.7843C3.13285 8.7843 3.76494 9.41639 3.76494 10.1961Z" fill="#334155"/>
<path id="Vector_6" d="M5.64746 9.25488H23.0592V11.1372H5.64746V9.25488Z" fill="#334155"/>
<path id="Vector_7" d="M3.76494 14.5882C3.76494 15.3679 3.13285 16 2.35317 16C1.57349 16 0.941406 15.3679 0.941406 14.5882C0.941406 13.8085 1.57349 13.1765 2.35317 13.1765C3.13285 13.1765 3.76494 13.8085 3.76494 14.5882Z" fill="#334155"/>
<path id="Vector_8" d="M5.64746 13.647H23.0592V15.5294H5.64746V13.647Z" fill="#334155"/>
</g>
</svg>
